<svg width="24" height="24" viewBox="0 0 24 24" fill="none" xmlns="http://www.w3.org/2000/svg">
  <path d="M21.8065 2.19348L12.5806 8.12903L13.9355 4.45161L21.8065 2.19348Z" fill="#E2761B"/>
  <path d="M2.19348 2.19348L11.3226 8.19355L10.0645 4.45161L2.19348 2.19348Z" fill="#E4761B"/>
  <path d="M18.9677 16.4516L16.8387 19.7419L21.2903 20.9032L22.4516 16.5161L18.9677 16.4516Z" fill="#E4761B"/>
  <path d="M1.54839 16.5161L2.70968 20.9032L7.16129 19.7419L5.03226 16.4516L1.54839 16.5161Z" fill="#E4761B"/>
  <path d="M7.16129 10.0645L5.80645 12.1935L11.4194 12.3871L11.2258 6.32258L7.16129 10.0645Z" fill="#E4761B"/>
  <path d="M16.8387 10.0645L12.7097 6.25806L12.5806 12.3871L18.1935 12.1935L16.8387 10.0645Z" fill="#E4761B"/>
  <path d="M7.16129 19.7419L10.4516 18.1935L7.6129 16.5161L7.16129 19.7419Z" fill="#E4761B"/>
  <path d="M13.5484 18.1935L16.8387 19.7419L16.3871 16.5161L13.5484 18.1935Z" fill="#E4761B"/>
  <path d="M16.8387 19.7419L13.5484 18.1935L13.8065 20.2581L13.7419 20.8387L16.8387 19.7419Z" fill="#D7C1B3"/>
  <path d="M7.16129 19.7419L10.2581 20.8387L10.1935 20.2581L10.4516 18.1935L7.16129 19.7419Z" fill="#D7C1B3"/>
  <path d="M10.3226 15.4839L7.6129 14.7097L9.48387 13.9355L10.3226 15.4839Z" fill="#233447"/>
  <path d="M13.6774 15.4839L14.5161 13.9355L16.3871 14.7097L13.6774 15.4839Z" fill="#233447"/>
  <path d="M7.16129 19.7419L7.6129 16.5161L5.03226 16.4516L7.16129 19.7419Z" fill="#CD6116"/>
  <path d="M16.3871 16.5161L16.8387 19.7419L18.9677 16.4516L16.3871 16.5161Z" fill="#CD6116"/>
  <path d="M18.1935 12.1935L12.5806 12.3871L13.6774 15.4839L14.5161 13.9355L16.3871 14.7097L18.1935 12.1935Z" fill="#CD6116"/>
  <path d="M7.6129 14.7097L9.48387 13.9355L10.3226 15.4839L11.4194 12.3871L5.80645 12.1935L7.6129 14.7097Z" fill="#CD6116"/>
  <path d="M5.80645 12.1935L7.6129 14.7097L7.16129 10.0645L5.80645 12.1935Z" fill="#E4751F"/>
  <path d="M16.3871 14.7097L18.1935 12.1935L16.8387 10.0645L16.3871 14.7097Z" fill="#E4751F"/>
  <path d="M11.4194 12.3871L10.3226 15.4839L11.3548 18.0645L11.5484 14.4516L11.4194 12.3871Z" fill="#E4751F"/>
  <path d="M12.5806 12.3871L12.6452 14.4516L12.8387 18.0645L13.8709 15.4839L12.5806 12.3871Z" fill="#E4751F"/>
  <path d="M13.6774 15.4839L12.8387 18.0645L13.5484 18.1935L16.3871 16.5161L16.3871 14.7097L13.6774 15.4839Z" fill="#F6851B"/>
  <path d="M7.6129 14.7097L7.6129 16.5161L10.4516 18.1935L11.1613 18.0645L10.3226 15.4839L7.6129 14.7097Z" fill="#F6851B"/>
  <path d="M13.7419 20.8387L13.8065 20.2581L13.5484 18.1935L12.8387 18.0645L13.7419 20.8387Z" fill="#C0AD9E"/>
  <path d="M10.2581 20.8387L11.1613 18.0645L10.4516 18.1935L10.1935 20.2581L10.2581 20.8387Z" fill="#C0AD9E"/>
  <path d="M13.8065 20.2581L13.7419 20.8387L16.8387 19.7419L16.3871 16.5161L13.5484 18.1935L13.8065 20.2581Z" fill="#161616"/>
  <path d="M10.1935 20.2581L10.4516 18.1935L7.6129 16.5161L7.16129 19.7419L10.2581 20.8387L10.1935 20.2581Z" fill="#161616"/>
  <path d="M13.6774 15.4839L12.8387 18.0645L13.5484 18.1935L16.3871 16.5161L16.3871 14.7097L13.6774 15.4839Z" fill="#F6851B"/>
  <path d="M7.6129 14.7097L7.6129 16.5161L10.4516 18.1935L11.1613 18.0645L10.3226 15.4839L7.6129 14.7097Z" fill="#F6851B"/>
  <path d="M13.7419 20.8387L13.8065 20.2581L13.5484 18.1935L12.8387 18.0645L13.7419 20.8387Z" fill="#C0AD9E"/>
  <path d="M10.2581 20.8387L11.1613 18.0645L10.4516 18.1935L10.1935 20.2581L10.2581 20.8387Z" fill="#C0AD9E"/>
  <path d="M13.8065 20.2581L13.7419 20.8387L16.8387 19.7419L16.3871 16.5161L13.5484 18.1935L13.8065 20.2581Z" fill="#161616"/>
  <path d="M10.1935 20.2581L10.4516 18.1935L7.6129 16.5161L7.16129 19.7419L10.2581 20.8387L10.1935 20.2581Z" fill="#161616"/>
</svg> 