<svg xmlns="http://www.w3.org/2000/svg" viewBox="0 0 48 48" width="48px" height="48px">
  <path fill="#212121" d="M24,4C12.954,4,4,12.954,4,24c0,11.046,8.954,20,20,20c11.046,0,20-8.954,20-20 C44,12.954,35.046,4,24,4z"/>
  <path fill="#fff" d="M22.122,16.826v4.705c-0.049-0.013-0.11-0.013-0.195-0.013c-1.695,0-3.072,1.377-3.072,3.072 c0,1.695,1.377,3.072,3.072,3.072c1.695,0,3.072-1.377,3.072-3.072v-8.156c1.409,1.005,3.072,1.634,4.914,1.634v-4.705 c1.085,0.611,1.817,1.792,1.817,3.15h4.705c0-4.453-3.619-8.072-8.072-8.072c0,0-0.001,0-0.001,0 c-2.227,0-4.242,0.902-5.707,2.36c-1.059,1.053-1.825,2.397-2.19,3.896c0.022-0.001,0.041-0.008,0.063-0.008 c1.695,0,3.072,1.377,3.072,3.072C24.5,18.153,23.51,17.125,22.122,16.826z M21.926,27.627c-1.687-0.005-3.061-1.38-3.066-3.067 c0.005-1.685,1.38-3.061,3.066-3.066V27.627z M26.735,13.266c1.084,0.016,2.135,0.229,3.123,0.645v3.131 c-0.923-0.458-1.948-0.717-3.038-0.717c-0.029,0-0.057,0.002-0.086,0.002v-3.06C26.734,13.266,26.735,13.266,26.735,13.266z M31.925,21.472h-3.06c0-0.009,0.001-0.017,0.001-0.025c0-1.672-0.704-3.178-1.833-4.25v-3.13 C29.587,15.092,31.43,17.942,31.925,21.472z"/>
</svg> 